<svg xmlns="http://www.w3.org/2000/svg" viewBox="0 0 1200 630" role="img" aria-label="Flux social preview banner">
  <defs>
    <linearGradient id="bg" x1="0" y1="0" x2="1" y2="1">
      <stop offset="0" stop-color="#090705"/>
      <stop offset="1" stop-color="#151005"/>
    </linearGradient>
    <radialGradient id="orbA" cx="20%" cy="20%" r="45%">
      <stop offset="0" stop-color="#f59e0b" stop-opacity="0.35"/>
      <stop offset="1" stop-color="#f59e0b" stop-opacity="0"/>
    </radialGradient>
    <radialGradient id="orbB" cx="82%" cy="78%" r="40%">
      <stop offset="0" stop-color="#fbbf24" stop-opacity="0.26"/>
      <stop offset="1" stop-color="#fbbf24" stop-opacity="0"/>
    </radialGradient>
    <linearGradient id="gold" x1="0" y1="0" x2="1" y2="1">
      <stop offset="0" stop-color="#fbbf24"/>
      <stop offset="1" stop-color="#f59e0b"/>
    </linearGradient>
  </defs>

  <rect width="1200" height="630" fill="url(#bg)"/>
  <rect width="1200" height="630" fill="url(#orbA)"/>
  <rect width="1200" height="630" fill="url(#orbB)"/>

  <rect x="56" y="56" width="1088" height="518" rx="30" fill="rgba(255,255,255,0.02)" stroke="rgba(245,158,11,0.25)" stroke-width="2"/>

  <g transform="translate(100 94)">
    <rect x="0" y="0" width="112" height="112" rx="32" fill="#0f0c06" stroke="rgba(245,158,11,0.4)" stroke-width="2"/>
    <path d="M34 20h38l-13 24h16L40 92l12-28H30z" fill="url(#gold)"/>
    <path d="M39 28h27l-9 16h11L45 76l7-17H38z" fill="#fff2cc" opacity="0.95"/>
  </g>

  <text x="236" y="154" fill="#fff6e2" font-family="Space Grotesk, Inter, sans-serif" font-size="80" font-weight="700" letter-spacing="-1.5">Flux</text>

  <text x="100" y="252" fill="#fbbf24" font-family="Inter, sans-serif" font-size="24" letter-spacing="3.2">VERSION 2.0</text>
  <text x="100" y="318" fill="#fef9ec" font-family="Space Grotesk, Inter, sans-serif" font-size="58" font-weight="700" letter-spacing="-0.8">Focus. Track. Achieve.</text>

  <text x="100" y="374" fill="rgba(254,249,236,0.78)" font-family="Inter, sans-serif" font-size="30">Refreshed UI • Pomodoro • Tasks • Sounds • Stats • Challenges</text>

  <g transform="translate(100 430)">
    <rect x="0" y="0" width="230" height="58" rx="29" fill="rgba(245,158,11,0.12)" stroke="rgba(245,158,11,0.35)"/>
    <text x="28" y="38" fill="#fef9ec" font-family="Inter, sans-serif" font-size="26" font-weight="600">Firebase Auth</text>

    <rect x="250" y="0" width="248" height="58" rx="29" fill="rgba(245,158,11,0.12)" stroke="rgba(245,158,11,0.35)"/>
    <text x="278" y="38" fill="#fef9ec" font-family="Inter, sans-serif" font-size="26" font-weight="600">Profile Avatars</text>

    <rect x="518" y="0" width="286" height="58" rx="29" fill="rgba(245,158,11,0.12)" stroke="rgba(245,158,11,0.35)"/>
    <text x="546" y="38" fill="#fef9ec" font-family="Inter, sans-serif" font-size="26" font-weight="600">Smooth Loading UX</text>
  </g>

  <text x="100" y="548" fill="rgba(254,249,236,0.55)" font-family="Inter, sans-serif" font-size="22">github.com/yuvrajkapoor/flux-productivity</text>
</svg>
